<svg width="48" height="38" viewBox="0 0 48 38" fill="none" xmlns="http://www.w3.org/2000/svg">
<path fill-rule="evenodd" clip-rule="evenodd" d="M45.9167 37.6666C45.9167 37.6666 49 37.6666 49 34.5555C49 31.4444 45.9167 22.111 33.5834 22.111C21.25 22.111 18.1667 31.4444 18.1667 34.5555C18.1667 37.6666 21.25 37.6666 21.25 37.6666H45.9167ZM21.3179 34.5555H45.8489C45.8633 34.5538 45.8777 34.5517 45.892 34.5493L45.9167 34.543C45.9105 33.7217 45.4018 31.3386 43.5734 29.1919C41.8714 27.179 38.8805 25.2221 33.5834 25.2221C28.2893 25.2221 25.2984 27.1821 23.5934 29.1919C21.7649 31.3386 21.2531 33.7248 21.25 34.543C21.2726 34.5474 21.2952 34.5516 21.3179 34.5555ZM33.5834 15.8888C35.2189 15.8888 36.7874 15.2333 37.9438 14.0664C39.1003 12.8995 39.75 11.3168 39.75 9.66658C39.75 8.01635 39.1003 6.4337 37.9438 5.26681C36.7874 4.09992 35.2189 3.44436 33.5834 3.44436C31.9478 3.44436 30.3793 4.09992 29.2229 5.26681C28.0664 6.4337 27.4167 8.01635 27.4167 9.66658C27.4167 11.3168 28.0664 12.8995 29.2229 14.0664C30.3793 15.2333 31.9478 15.8888 33.5834 15.8888ZM42.8334 9.66658C42.8334 10.8923 42.5941 12.1059 42.1292 13.2383C41.6644 14.3707 40.983 15.3996 40.1241 16.2662C39.2651 17.1329 38.2454 17.8204 37.1232 18.2895C36.0009 18.7585 34.7981 18.9999 33.5834 18.9999C32.3686 18.9999 31.1658 18.7585 30.0435 18.2895C28.9213 17.8204 27.9016 17.1329 27.0426 16.2662C26.1837 15.3996 25.5023 14.3707 25.0375 13.2383C24.5726 12.1059 24.3334 10.8923 24.3334 9.66658C24.3334 7.19123 25.3079 4.81726 27.0426 3.06692C28.7773 1.31658 31.1301 0.333252 33.5834 0.333252C36.0366 0.333252 38.3894 1.31658 40.1241 3.06692C41.8588 4.81726 42.8334 7.19123 42.8334 9.66658ZM21.0527 22.9821C19.8193 22.5903 18.5479 22.3326 17.2602 22.2137C16.5366 22.1443 15.8102 22.11 15.0834 22.111C2.75002 22.111 -0.333313 31.4444 -0.333313 34.5555C-0.333313 36.6306 0.693437 37.6666 2.75002 37.6666H15.7494C15.2923 36.6953 15.0643 35.6305 15.0834 34.5555C15.0834 31.4132 16.2458 28.2026 18.4442 25.5208C19.1934 24.6061 20.066 23.7506 21.0527 22.9821ZM14.8367 25.2221C9.69369 25.2844 6.77377 27.2133 5.09335 29.1919C3.2526 31.351 2.75002 33.7435 2.75002 34.5555H12C12 31.3044 12.9959 28.0657 14.8367 25.2221ZM4.29169 11.2221C4.29169 8.74679 5.26624 6.37282 7.00095 4.62248C8.73566 2.87214 11.0884 1.88881 13.5417 1.88881C15.9949 1.88881 18.3477 2.87214 20.0824 4.62248C21.8171 6.37282 22.7917 8.74679 22.7917 11.2221C22.7917 13.6975 21.8171 16.0715 20.0824 17.8218C18.3477 19.5721 15.9949 20.5555 13.5417 20.5555C11.0884 20.5555 8.73566 19.5721 7.00095 17.8218C5.26624 16.0715 4.29169 13.6975 4.29169 11.2221ZM13.5417 4.99992C11.9062 4.99992 10.3377 5.65547 9.18119 6.82236C8.02472 7.98926 7.37502 9.5719 7.37502 11.2221C7.37502 12.8724 8.02472 14.455 9.18119 15.6219C10.3377 16.7888 11.9062 17.4444 13.5417 17.4444C15.1772 17.4444 16.7457 16.7888 17.9022 15.6219C19.0587 14.455 19.7084 12.8724 19.7084 11.2221C19.7084 9.5719 19.0587 7.98926 17.9022 6.82236C16.7457 5.65547 15.1772 4.99992 13.5417 4.99992Z" fill="#23A6F0"/>
</svg>
